<?xml version="1.0" encoding="UTF-8"?>
<svg version="1.1" xmlns="http://www.w3.org/2000/svg" width="1024" height="1024">
<path d="M0 0 C0.86918564 0.00777969 1.73837128 0.01555939 2.63389587 0.02357483 C13.53509695 0.20250648 24.37223483 1.2154515 35.22265625 2.21484375 C37.30266336 2.39988851 39.38274154 2.58413627 41.46289062 2.76757812 C46.14450721 3.18228903 50.82547654 3.60318558 55.50540161 4.03659058 C57.3790227 4.20650467 59.25335817 4.36862844 61.12814331 4.525177 C62.10091217 4.60782806 63.07368103 4.69047913 64.07592773 4.77563477 C64.95433823 4.848069 65.83274872 4.92050323 66.73777771 4.99513245 C70.64391716 5.45020447 72.83704462 6.06193599 76.16015625 8.27734375 C77.01867187 8.79167969 77.8771875 9.30601562 78.76171875 9.8359375 C93.28619258 18.8621286 100.98407305 31.19950049 105.1328125 47.53515625 C105.38260361 48.48188202 105.63239471 49.42860779 105.88975525 50.40402222 C106.6777498 53.40086432 107.45037372 56.40141911 108.22265625 59.40234375 C108.74314696 61.38958344 109.26462454 63.37656492 109.78710938 65.36328125 C111.03456075 70.11988234 112.26553412 74.88048465 113.48565674 79.64416504 C113.92474612 81.35832611 114.36522603 83.07213178 114.80731201 84.78552246 C115.38586047 87.0292163 115.95953501 89.27408789 116.53125 91.51953125 C116.84892334 92.76331543 117.16659668 94.00709961 117.49389648 95.28857422 C118.16015625 98.27734375 118.16015625 98.27734375 118.16015625 101.27734375 C119.29453125 101.25671875 120.42890625 101.23609375 121.59765625 101.21484375 C125.16015625 101.27734375 125.16015625 101.27734375 126.16015625 102.27734375 C128.67010648 102.49255883 131.15780328 102.64499032 133.6730957 102.75756836 C134.85474713 102.81566398 134.85474713 102.81566398 136.06027031 102.87493324 C138.69360623 103.00255809 141.32722215 103.12266525 143.9609375 103.2421875 C145.81716739 103.32943349 147.67339394 103.41675056 149.52961731 103.50413513 C169.20019187 104.41603406 188.87883885 105.09349356 208.55938721 105.74707031 C216.919936 106.02524894 225.28029118 106.3091953 233.640625 106.59375 C234.5167532 106.62345509 235.39288139 106.65316017 236.29555893 106.68376541 C249.25494599 107.1242982 262.20940717 107.6255969 275.16015625 108.27734375 C276.16015625 110.27734375 276.16015625 110.27734375 275.58691406 112.48535156 C275.10496582 113.84418457 275.10496582 113.84418457 274.61328125 115.23046875 C274.26394531 116.23650146 273.91460937 117.24253418 273.5546875 118.27905273 C272.98814453 119.88695679 272.98814453 119.88695679 272.41015625 121.52734375 C267.30542016 135.07907596 267.30542016 135.07907596 265.16015625 149.27734375 C250.31317488 149.48472336 235.51770253 148.8345583 220.6875 148.18359375 C218.06622142 148.07117637 215.44492904 147.95908058 212.82362366 147.84729004 C206.67585041 147.58457181 200.52824162 147.31819561 194.38068634 147.05043077 C187.36966692 146.74524063 180.3584694 146.44424158 173.34725559 146.14355564 C158.9513565 145.52607486 144.55568244 144.90345728 130.16015625 144.27734375 C130.78443843 146.94418024 131.40956451 149.61081442 132.03515625 152.27734375 C132.20917969 153.02113281 132.38320313 153.76492188 132.5625 154.53125 C132.73652344 155.27246094 132.91054688 156.01367188 133.08984375 156.77734375 C133.26483398 157.52371094 133.43982422 158.27007812 133.62011719 159.0390625 C134.14898136 161.23102755 134.71948867 163.40920344 135.29296875 165.58984375 C136.16015625 169.27734375 136.16015625 169.27734375 136.16015625 173.27734375 C136.82015625 173.60734375 137.48015625 173.93734375 138.16015625 174.27734375 C138.8359375 176.7409668 138.8359375 176.7409668 139.47265625 180.1015625 C140.64427526 185.89772495 141.9487381 191.62954562 143.41015625 197.359375 C143.62218689 198.19141449 143.83421753 199.02345398 144.05267334 199.88070679 C144.75269829 202.61772497 145.45628624 205.35381204 146.16015625 208.08984375 C146.67227031 210.08852379 147.18431197 212.08722237 147.69628906 214.0859375 C153.69958493 237.48614153 159.801772 260.86098868 165.89832306 284.23703289 C169.3224491 297.36671744 172.74478653 310.49688515 176.14472198 323.63285828 C176.49456769 324.9838205 176.84487268 326.33466388 177.19567108 327.68537903 C177.67768492 329.54185865 178.15773491 331.39884782 178.63769531 333.25585938 C178.90874084 334.30245728 179.17978638 335.34905518 179.45904541 336.42736816 C180.10037085 339.03431952 180.65748811 341.64055264 181.16015625 344.27734375 C185.11154747 344.01627376 189.06251853 343.74962682 193.01318359 343.4777832 C194.35748053 343.38607495 195.70188278 343.2958971 197.04638672 343.20727539 C198.97780867 343.07970176 200.90883519 342.94618521 202.83984375 342.8125 C204.00241699 342.73394775 205.16499023 342.65539551 206.36279297 342.57446289 C209.11139779 342.44765749 209.11139779 342.44765749 211.16015625 341.27734375 C213.27016573 341.23116336 215.38152446 341.24361119 217.49169922 341.28149414 C227.30368485 341.37312813 237.06335662 340.77667146 246.85546875 340.2109375 C248.91355349 340.09519659 250.97165967 339.97983648 253.02978516 339.86482239 C258.61391437 339.5517466 264.19774254 339.23357028 269.78153229 338.914505 C275.70427995 338.57698498 281.6272968 338.24425845 287.55029297 337.91113281 C296.39565251 337.41322915 305.24092151 336.91376271 314.086092 336.41251183 C331.31955145 335.43600142 348.55361342 334.47052784 365.78791666 333.5090363 C369.31482282 333.312251 372.84172226 333.1153453 376.36862183 332.91844177 C377.06376967 332.87963329 377.75891751 332.84082481 378.47513044 332.80084032 C379.87532333 332.72267072 381.27551619 332.64450048 382.67570901 332.5663296 C384.76390769 332.44974958 386.85210668 332.3331752 388.94030571 332.21660137 C393.05525758 331.98687907 397.17020769 331.7571253 401.28515625 331.52734375 C401.95388417 331.49000169 402.62261209 331.45265964 403.3116045 331.414186 C407.93967743 331.1557341 412.56774201 330.89713301 417.19580078 330.63842773 C418.46853662 330.56728288 419.74127247 330.49613802 421.05257607 330.42283726 C430.62227824 329.88744838 440.19169541 329.34709918 449.76102257 328.80505276 C455.63063562 328.47342548 461.50055029 328.14913959 467.37117958 327.83601761 C470.54557284 327.66605188 473.71969013 327.49129284 476.8937645 327.31548309 C478.91778858 327.2051887 480.94218002 327.10169755 482.96658325 326.99859619 C496.60965769 326.74234766 496.60965769 326.74234766 509.16015625 322.27734375 C514.8055136 314.71871326 516.21518714 304.71249859 518.1484375 295.69140625 C518.49897526 294.10079381 518.85057195 292.5104144 519.20317078 290.92025757 C519.93463483 287.60886791 520.65747616 284.29576418 521.37329102 280.98095703 C522.2903419 276.73480175 523.22275982 272.49221418 524.16079426 268.25065041 C525.05795187 264.19042557 525.94710159 260.12845929 526.8359375 256.06640625 C527.0055279 255.29496906 527.17511829 254.52353188 527.34984779 253.7287178 C527.82793588 251.54745951 528.30025622 249.36503576 528.77075195 247.18212891 C529.03990921 245.94210114 529.30906647 244.70207336 529.58638 243.42446899 C530.27973024 240.15465527 530.27973024 240.15465527 530.16015625 236.27734375 C530.82015625 236.27734375 531.48015625 236.27734375 532.16015625 236.27734375 C532.2802002 234.99956055 532.40024414 233.72177734 532.52392578 232.40527344 C533.09941197 227.24991304 534.16248566 222.27755022 535.33984375 217.23046875 C535.55327423 216.29740906 535.76670471 215.36434937 535.98660278 214.40301514 C536.6647539 211.4433551 537.34982395 208.48534821 538.03515625 205.52734375 C538.4874387 203.55869927 538.93926536 201.58995001 539.390625 199.62109375 C542.917949 184.25759505 542.917949 184.25759505 544.14941406 179.16601562 C544.42366211 178.02197266 544.69791016 176.87792969 544.98046875 175.69921875 C545.32875732 174.27754395 545.32875732 174.27754395 545.68408203 172.82714844 C546.24963405 170.27510519 546.24963405 170.27510519 546.10888672 167.62597656 C546.16015625 165.27734375 546.16015625 165.27734375 548.16015625 162.27734375 C547.01949707 162.22723145 545.87883789 162.17711914 544.70361328 162.12548828 C540.48015762 161.93744208 536.25736784 161.73697779 532.03466797 161.53271484 C530.20539909 161.44597807 528.37596628 161.36263051 526.54638672 161.28271484 C523.9197443 161.16739884 521.29392855 161.0399898 518.66796875 160.91015625 C517.84708771 160.87673126 517.02620667 160.84330627 516.18045044 160.80886841 C510.38789966 160.50508716 510.38789966 160.50508716 508.16015625 158.27734375 C508.66804687 157.28476562 509.1759375 156.2921875 509.69921875 155.26953125 C515.49675615 143.85823599 520.8196638 132.33426723 525.16015625 120.27734375 C566.59729272 119.59680684 566.59729272 119.59680684 580.84765625 131.52734375 C588.92661584 141.13475516 590.62827423 150.5025175 589.57711792 162.76245117 C588.91071694 168.38006071 587.66811073 173.81244918 586.3515625 179.30859375 C586.06934845 180.52211517 585.7871344 181.7356366 585.49636841 182.9859314 C584.89278589 185.57680167 584.28599784 188.16663543 583.67318726 190.75531006 C582.70641402 194.83999689 581.75279921 198.92768187 580.80200195 203.01611328 C580.64272185 203.70087549 580.48344175 204.3856377 580.31933498 205.09115028 C579.99750048 206.47477979 579.67569863 207.8584169 579.35392952 209.24206161 C578.87117497 211.31605733 578.38719911 213.38976481 577.90293884 215.46340942 C575.13128588 227.34080412 572.46927375 239.24101497 569.84765625 251.15234375 C566.72765067 265.2932369 563.54785329 279.41865236 560.28515625 293.52734375 C560.10342865 294.31332947 559.92170105 295.09931519 559.73446655 295.90911865 C558.88113824 299.5965571 558.02438373 303.28314908 557.16210938 306.96850586 C556.46460299 309.95328466 555.78362707 312.94133108 555.11132812 315.93188477 C554.93745575 316.69511047 554.76358337 317.45833618 554.58444214 318.24468994 C554.25616508 319.68570035 553.93233411 321.12773465 553.61404419 322.57098389 C550.45823107 336.31392501 541.77170445 349.18733066 530.16015625 357.27734375 C515.57969436 365.85094053 501.5291115 367.76251081 484.91796875 368.625 C482.82571522 368.74251384 480.73352422 368.86114491 478.64138794 368.98072815 C473.7259791 369.25956069 468.81021606 369.53089044 463.89416504 369.79815674 C454.87916807 370.28902907 445.86553601 370.80329782 436.85190153 371.31849742 C419.56971729 372.30619726 402.28702413 373.28463914 385.00390625 374.25585938 C383.40810769 374.3455358 383.40810769 374.3455358 381.78007078 374.43702388 C377.45198171 374.68021683 373.12389041 374.92337018 368.79579568 375.16646254 C358.03693728 375.77077437 347.27815552 376.37644496 336.51938009 376.98223186 C333.32932614 377.16182184 330.13926753 377.34132875 326.94920731 377.52080727 C317.5340584 378.05054874 308.11892598 378.58057084 298.70389771 379.11245263 C293.62520683 379.39932967 288.54649566 379.68584623 283.46777344 379.97216797 C282.48063653 380.02782826 281.49349963 380.08348855 280.47644949 380.14083552 C267.36423531 380.87953917 254.25119231 381.60088585 241.13714099 382.30618989 C236.14428433 382.57539779 231.15161402 382.84804191 226.15895045 383.12080461 C221.60000342 383.36940597 217.04079316 383.61201734 212.48126411 383.84969187 C210.38576534 383.96000025 208.2904677 384.07348636 206.19521713 384.18840599 C203.69969918 384.3252571 201.20390581 384.4572306 198.707798 384.58286476 C182.25810039 385.50843452 169.57541617 388.61223786 158.16015625 401.27734375 C153.51954446 407.78376852 153.04304388 415.50787756 154.16015625 423.27734375 C155.6133438 425.99373908 155.6133438 425.99373908 157.16015625 428.27734375 C157.16015625 428.93734375 157.16015625 429.59734375 157.16015625 430.27734375 C167.05809705 435.34594268 175.60472996 436.86429983 186.69438171 436.79632568 C188.13931373 436.80221146 189.58423949 436.80984397 191.02915412 436.81905675 C194.97216038 436.83920622 198.91480457 436.83479236 202.85783851 436.82614923 C207.120166 436.8211858 211.38240471 436.83931229 215.6446991 436.85456848 C223.02027645 436.87783883 230.3957556 436.88663088 237.77136803 436.8854599 C248.4351105 436.88378802 259.09872236 436.90415231 269.76242993 436.9298152 C287.06549054 436.97086127 304.3685276 436.99420024 321.67163086 437.00634766 C338.47536481 437.01818254 355.27905445 437.03839163 372.08276367 437.06982422 C373.11934817 437.07176032 374.15593268 437.07369642 375.22392883 437.07569119 C380.42440892 437.08545603 385.62488867 437.09538509 390.82536829 437.10539579 C433.93694266 437.18817145 477.04851851 437.2421865 520.16015625 437.27734375 C519.83015625 437.93734375 519.50015625 438.59734375 519.16015625 439.27734375 C520.04703125 439.81359375 520.93390625 440.34984375 521.84765625 440.90234375 C526.17745222 443.78545433 529.48984095 447.26639784 531.16015625 452.27734375 C531.93510287 458.71829352 531.1238833 464.03641576 527.16015625 469.27734375 C521.7261169 474.39959396 517.33739883 476.29989792 509.92259502 476.58920097 C508.87349872 476.63050861 507.82440241 476.67181624 506.74351531 476.71437562 C505.0356987 476.7724792 505.0356987 476.7724792 503.29338074 476.83175659 C502.09403717 476.87388397 500.89469361 476.91601135 499.6590063 476.95941532 C486.47305327 477.38541134 473.29151139 477.42067215 460.09984767 477.40806842 C456.49860072 477.40575577 452.89735808 477.40932229 449.29611206 477.41204834 C442.28327074 477.41644336 435.27044026 477.41555803 428.25759856 477.4126357 C422.54858988 477.4103572 416.83958419 477.41007961 411.13057518 477.41115952 C409.90170703 477.41138936 409.90170703 477.41138936 408.64801326 477.41162386 C406.98264923 477.41194365 405.3172852 477.41226787 403.65192118 477.41259645 C388.11819033 477.41543273 372.58446543 477.4121932 357.05073556 477.40679608 C343.77853102 477.40232721 330.50633524 477.40310828 317.23413086 477.40771484 C301.74309734 477.41308917 286.25206899 477.41516084 270.76103467 477.41210258 C269.10345312 477.4117841 267.44587157 477.41146973 265.78829002 477.41115952 C264.56559921 477.4109281 264.56559921 477.4109281 263.31820757 477.41069201 C257.62746925 477.40983559 251.93673427 477.41127064 246.24599648 477.41363907 C239.29484861 477.41646909 232.34371201 477.41563214 225.39256541 477.41035832 C221.85935833 477.40776432 218.32616989 477.40664139 214.79296303 477.41000748 C201.76902422 477.41940176 188.76163647 477.35706572 175.74650574 476.83956909 C174.7754893 476.80188073 173.80447285 476.76419237 172.80403167 476.72536194 C157.58239999 476.03769464 141.27103911 471.42273246 130.16015625 460.27734375 C130.16015625 459.61734375 130.16015625 458.95734375 130.16015625 458.27734375 C129.50015625 458.27734375 128.84015625 458.27734375 128.16015625 458.27734375 C115.0323353 443.03400198 110.7261624 426.98489229 112.16015625 407.27734375 C114.53047498 388.69916995 125.73817984 375.1684758 139.6015625 363.58203125 C141.28208694 362.21429976 141.28208694 362.21429976 143.16015625 360.27734375 C142.80273158 357.46892487 142.80273158 357.46892487 141.86523438 354.19018555 C141.62098598 353.24775781 141.62098598 353.24775781 141.37180328 352.28629112 C140.82285042 350.17994118 140.25713652 348.0784631 139.69140625 345.9765625 C139.29984265 344.48801513 138.90931974 342.99919365 138.51977539 341.51011658 C137.46594345 337.49357069 136.39769702 333.48098489 135.32687378 329.46894073 C134.21387847 325.28868738 133.11443196 321.10487513 132.01367188 316.92138672 C130.02480818 309.37039939 128.02502116 301.82236229 126.01937103 294.27581787 C124.05964164 286.90177886 122.10860114 279.52546705 120.16015625 272.1484375 C119.56382348 269.89118901 118.96746987 267.63394602 118.37109375 265.37670898 C118.08717773 264.30202362 117.80326172 263.22733826 117.51074219 262.12008667 C116.6578673 258.89368472 115.80366623 255.66763619 114.94921875 252.44165039 C110.32524294 234.97300769 105.81624724 217.47662812 101.36990356 199.96200562 C99.71636246 193.45216031 98.05056806 186.94551774 96.38043213 180.43991089 C95.08227036 175.38177848 93.78716926 170.32286482 92.49243164 165.26385498 C91.85904674 162.79157811 91.22446231 160.31960821 90.58862305 157.84796143 C89.70015386 154.39300593 88.81636134 150.93688477 87.93359375 147.48046875 C87.66747284 146.45015533 87.40135193 145.41984192 87.12716675 144.35830688 C86.0918583 140.28916148 85.10157093 136.3136115 84.61181641 132.13964844 C84.46276855 131.19508789 84.3137207 130.25052734 84.16015625 129.27734375 C83.50015625 128.94734375 82.84015625 128.61734375 82.16015625 128.27734375 C81.6587677 126.30366516 81.6587677 126.30366516 81.26879883 123.6574707 C80.06453221 116.39791407 78.25412407 109.31529547 76.421875 102.1953125 C76.24239634 101.49577265 76.06291767 100.7962328 75.87800026 100.07549477 C74.9303357 96.38445682 73.97757106 92.69477838 73.02075195 89.00610352 C72.03879166 85.2158879 71.07578888 81.42111382 70.11676311 77.62504101 C69.36992694 74.68389133 68.60877071 71.74658302 67.84375954 68.81011391 C67.48235512 67.41256374 67.12633439 66.01360905 66.7760067 64.6132412 C64.3994775 54.3719051 64.3994775 54.3719051 58.16015625 46.27734375 C55.27311455 45.53342401 53.08479148 45.2177352 50.16015625 45.08984375 C48.91492188 44.9978772 48.91492188 44.9978772 47.64453125 44.90405273 C45.67787829 44.7600215 43.71029628 44.628402 41.7421875 44.50585938 C35.03378096 44.07789669 28.33275587 43.55362269 21.63134766 43.02865601 C19.20799906 42.8434992 16.78394789 42.67338609 14.359375 42.50512695 C-10.55279811 40.68617846 -10.55279811 40.68617846 -17.83984375 33.27734375 C-21.96580003 28.09344996 -22.48193779 23.78885356 -22.2109375 17.2109375 C-21.42626316 11.00788031 -19.06054105 6.8781515 -14.33984375 2.77734375 C-9.50921649 -0.00983051 -5.41677849 -0.09052785 0 0 Z " fill="#19942F" transform="translate(205.83984375,258.72265625)"/>
<path d="M0 0 C0.99 0 1.98 0 3 0 C2.34847843 27.05074354 -0.17868681 53.55031846 -6 80 C-6.19319824 80.88445801 -6.38639648 81.76891602 -6.58544922 82.68017578 C-14.79402385 119.49503202 -29.25491649 151.27814591 -55 179 C-55.55042969 179.60457031 -56.10085938 180.20914063 -56.66796875 180.83203125 C-80.94663509 206.42953873 -115.74451689 216.63726419 -148.54785156 226.01416016 C-152.13833783 227.04340703 -155.72553438 228.08355897 -159.3125 229.125 C-160.41424561 229.43735596 -161.51599121 229.74971191 -162.65112305 230.0715332 C-171.74702423 232.72280485 -180.35089527 236.186619 -188.5 241.0625 C-189.2940625 241.52785156 -190.088125 241.99320313 -190.90625 242.47265625 C-193.13649272 244.09956839 -194.40330663 245.7682073 -196 248 C-196.928125 248.70125 -197.85625 249.4025 -198.8125 250.125 C-210.43659448 259.61992866 -214.74036031 278.74233374 -216.70703125 292.91796875 C-216.82933105 293.79573975 -216.95163086 294.67351074 -217.07763672 295.57788086 C-217.31158547 297.31503764 -217.53145471 299.05416899 -217.73486328 300.79516602 C-218.45405325 306.28346414 -219.59981215 311.49932788 -223 316 C-226.44568421 318.10175118 -228.96605595 318.56475217 -233 318 C-236.42765324 315.93227415 -238.70709412 313.87871765 -240 310 C-240.57713801 302.16753253 -239.53222608 294.72481771 -238 287.0625 C-237.77852295 285.94206299 -237.5570459 284.82162598 -237.32885742 283.66723633 C-230.6593858 251.22474745 -219.6543547 219.66320997 -205 190 C-204.57219238 189.12134277 -204.14438477 188.24268555 -203.70361328 187.33740234 C-196.63826967 172.91244259 -188.06303581 159.5260166 -178 147 C-177.5359375 146.01 -177.5359375 146.01 -177.0625 145 C-175.54053951 142.1351332 -173.31844201 140.26692107 -171 138 C-169.16329019 135.87432507 -167.34961826 133.73202546 -165.55078125 131.57421875 C-165.03902344 131.05472656 -164.52726563 130.53523437 -164 130 C-163.34 130 -162.68 130 -162 130 C-161.7525 129.4225 -161.505 128.845 -161.25 128.25 C-159.81700012 125.67060021 -158.21575324 123.93878408 -156 122 C-155.34 122 -154.68 122 -154 122 C-153.505 120.515 -153.505 120.515 -153 119 C-135.72936295 102.61678699 -114.48587976 91.03771372 -93.47265625 80.31518555 C-90.92563499 78.96044586 -88.46086911 77.50475102 -86 76 C-97.73984741 78.8559801 -108.95781915 82.01687693 -120 87 C-120.63470215 87.28182129 -121.2694043 87.56364258 -121.92333984 87.85400391 C-137.13580594 94.70547769 -150.43362007 104.10995965 -162.48828125 115.60546875 C-164.54128787 117.56268968 -166.62030615 119.39212711 -168.8125 121.1875 C-172.63774137 124.44536107 -175.80357071 128.13286437 -179 132 C-179.42941895 132.51175781 -179.85883789 133.02351562 -180.30126953 133.55078125 C-202.04940201 159.54992279 -220.08689074 191.48992739 -230 224 C-230.66 224 -231.32 224 -232 224 C-235.41420393 214.57679714 -238.39573037 205.21215506 -240.375 195.375 C-240.54225586 194.5593457 -240.70951172 193.74369141 -240.88183594 192.90332031 C-241.8457111 187.85178533 -242.1529415 183.14118736 -242 178 C-242.66 177.67 -243.32 177.34 -244 177 C-243.18423334 133.71479013 -236.19777318 97.24375393 -204.51953125 65.515625 C-194.05211913 55.55844124 -182.10136349 48.00174194 -169 42 C-169 41.34 -169 40.68 -169 40 C-167.989375 39.938125 -166.97875 39.87625 -165.9375 39.8125 C-161.77842897 39.3026314 -158.07440801 38.07042912 -154.125 36.6875 C-138.97679315 31.45742585 -123.2480774 29.12067036 -107.4609375 26.66210938 C-106.16671875 26.46037109 -104.8725 26.25863281 -103.5390625 26.05078125 C-102.37584473 25.87200439 -101.21262695 25.69322754 -100.01416016 25.5090332 C-97.12417816 25.06700536 -97.12417816 25.06700536 -94.83032227 24.4309082 C-93 24 -93 24 -89.17578125 24.0546875 C-82.44251364 24.1290274 -75.84207683 23.05446541 -69.1875 22.125 C-67.25293945 21.86396484 -67.25293945 21.86396484 -65.27929688 21.59765625 C-61.51658955 21.0837812 -57.75796536 20.5473984 -54 20 C-52.22423584 19.74814941 -52.22423584 19.74814941 -50.41259766 19.49121094 C-49.32382324 19.3265332 -48.23504883 19.16185547 -47.11328125 18.9921875 C-46.14817627 18.84894043 -45.18307129 18.70569336 -44.1887207 18.55810547 C-43.46644287 18.37393066 -42.74416504 18.18975586 -42 18 C-41.67 17.34 -41.34 16.68 -41 16 C-39.0509375 15.87625 -39.0509375 15.87625 -37.0625 15.75 C-25.13796039 14.77482244 -10.95219576 9.64099792 -1 3 C-0.67 2.01 -0.34 1.02 0 0 Z " fill="#74C335" transform="translate(729,272)"/>
<path d="M0 0 C9.71443268 8.83609338 16.54764836 19.32537539 17.3984375 32.71484375 C17.81717891 48.6645725 13.93126504 61.83109559 2.84765625 73.77734375 C-7.72293758 83.64008531 -20.56034484 88.07590652 -34.83984375 87.96484375 C-47.71513187 87.21218387 -58.02741945 81.71386718 -67.2890625 72.89453125 C-71.7534134 67.76702256 -74.79376859 62.02645697 -77.83984375 55.96484375 C-78.22269531 55.33835937 -78.60554688 54.711875 -79 54.06640625 C-83.42261701 42.99957857 -80.86993514 28.74272505 -76.83984375 17.96484375 C-70.84409273 5.5705264 -61.5940952 -2.96131207 -48.83984375 -8.03515625 C-48.17984375 -8.03515625 -47.51984375 -8.03515625 -46.83984375 -8.03515625 C-46.50984375 -8.69515625 -46.17984375 -9.35515625 -45.83984375 -10.03515625 C-29.71192838 -13.02180724 -12.84216806 -10.71313138 0 0 Z " fill="#199530" transform="translate(459.83984375,754.03515625)"/>
<path d="M0 0 C10.56433302 8.0739422 17.72922082 19.02906111 20.2265625 32.17578125 C21.75823999 46.71006876 18.55678514 60.37282402 9.30859375 71.8515625 C0.30015526 81.90788689 -11.04150914 88.5750449 -24.6328125 90.01953125 C-37.5524398 90.66229878 -49.8078061 87.78643029 -59.79101562 79.27856445 C-69.92129448 69.99834535 -77.07071613 58.58988151 -78.01171875 44.64453125 C-78.27212532 30.71963248 -75.5764035 20.27880962 -66.7734375 9.17578125 C-66.1753125 8.28890625 -65.5771875 7.40203125 -64.9609375 6.48828125 C-47.84654396 -11.60407764 -20.37898736 -13.40420718 0 0 Z " fill="#199530" transform="translate(680.7734375,751.82421875)"/>
<path d="M0 0 C0.66 0 1.32 0 2 0 C1.97905273 0.68924561 1.95810547 1.37849121 1.93652344 2.08862305 C1.13611997 20.4994412 1.13611997 20.4994412 6 38 C6.43570312 38.95648437 6.87140625 39.91296875 7.3203125 40.8984375 C14.20663498 54.63345228 24.72407433 63.11953662 38.75 68.95703125 C47.97282779 71.91676084 56.85350593 72.28930108 66.48748779 72.26069641 C67.93964911 72.26372142 69.39180883 72.26761265 70.84396577 72.27228898 C74.81176876 72.2825319 78.77948102 72.28039671 82.74729133 72.27610838 C87.0349421 72.27363455 91.3225714 72.28266323 95.61021423 72.29014587 C103.99965726 72.30287456 112.38906825 72.30468902 120.7785193 72.30234561 C127.59602506 72.30056101 134.4135211 72.30231512 141.2310257 72.30657005 C142.20209025 72.30716524 143.17315481 72.30776043 144.17364557 72.30837366 C146.14642284 72.30958542 148.11920012 72.31079955 150.09197739 72.31201603 C168.57705885 72.32288355 187.06212204 72.32073223 205.54720452 72.31463119 C222.46220482 72.30945713 239.3771476 72.32073177 256.29213652 72.33972941 C273.66529818 72.35909205 291.0384326 72.36736693 308.41160512 72.36360615 C318.16359047 72.36169244 327.91552681 72.36419872 337.66750336 72.37832069 C345.9649351 72.39021505 354.26228763 72.39166092 362.55972043 72.37953053 C366.79339183 72.37362947 371.0269182 72.37257637 375.26058006 72.38453293 C379.13537378 72.39534908 383.00990061 72.39233963 386.88468161 72.37827124 C388.28690265 72.37561261 389.68914431 72.3780273 391.09134516 72.38600711 C392.99685678 72.39609933 394.90244351 72.3859085 396.80794907 72.37473011 C397.8665047 72.37478513 398.92506034 72.37484014 400.01569343 72.37489682 C404.77226004 71.77736381 408.80971192 69.8486241 411.8125 66.0625 C415.21513142 61.29881602 415.78414076 56.83749233 415 51 C413.21623098 46.11402398 410.5786205 43.41649415 406 41 C406 40.34 406 39.68 406 39 C411.19355461 40.37476445 414.00427491 43.74341593 417 48 C418.81709841 53.45129524 418.81891217 58.8754545 416.5 64.1875 C413.86406278 68.89453075 409.42870644 72.94893917 404.20234758 74.55106556 C401.69689303 75.06178641 399.31814096 75.21214151 396.76243877 75.31185722 C395.71334247 75.35316486 394.66424616 75.39447249 393.58335906 75.43703187 C392.44481465 75.47576759 391.30627024 75.51450331 390.13322449 75.55441284 C388.93388092 75.59654022 387.73453736 75.6386676 386.49885005 75.68207157 C373.31289702 76.10806759 360.13135514 76.1433284 346.93969142 76.13072467 C343.33844447 76.12841202 339.73720183 76.13197854 336.13595581 76.13470459 C329.12311449 76.13909961 322.11028401 76.13821428 315.09744231 76.13529195 C309.38843363 76.13301345 303.67942794 76.13273586 297.97041893 76.13381577 C296.74155078 76.13404561 296.74155078 76.13404561 295.48785701 76.13428011 C293.82249298 76.1345999 292.15712895 76.13492412 290.49176493 76.1352527 C274.95803408 76.13808898 259.42430918 76.13484945 243.89057931 76.12945233 C230.61837477 76.12498346 217.34617899 76.12576453 204.07397461 76.13037109 C188.58294109 76.13574542 173.09191274 76.13781709 157.60087842 76.13475883 C155.94329687 76.13444035 154.28571532 76.13412598 152.62813377 76.13381577 C151.81300656 76.13366149 150.99787935 76.13350721 150.15805132 76.13334826 C144.467313 76.13249184 138.77657802 76.13392689 133.08584023 76.13629532 C126.13469236 76.13912534 119.18355576 76.13828839 112.23240916 76.13301457 C108.69920208 76.13042057 105.16601364 76.12929764 101.63280678 76.13266373 C88.60886797 76.14205801 75.60148022 76.07972197 62.58634949 75.56222534 C61.12982482 75.5056928 61.12982482 75.5056928 59.64387542 75.44801819 C44.42224374 74.76035089 28.11088286 70.14538871 17 59 C17 58.34 17 57.68 17 57 C16.34 57 15.68 57 15 57 C1.79749241 41.669936 -2.23298454 25.77836019 -1 6 C-0.71049262 3.99318746 -0.39702687 1.98833618 0 0 Z " fill="#177823" transform="translate(319,660)"/>
<path d="M0 0 C-3.18290577 2.12193718 -4.26064615 2.29967307 -7.94906616 2.5062561 C-8.97146393 2.56790451 -9.99386169 2.62955292 -11.04724121 2.69306946 C-12.16908813 2.75133408 -13.29093506 2.80959869 -14.44677734 2.86962891 C-16.22098557 2.97247948 -16.22098557 2.97247948 -18.03103638 3.07740784 C-21.28443354 3.26391241 -24.53815332 3.44215188 -27.79223204 3.61629152 C-31.22497155 3.80150977 -34.65719577 3.99586832 -38.08950806 4.18881226 C-43.88143087 4.51290898 -49.67373139 4.8294343 -55.46630859 5.14160156 C-62.08459317 5.49836412 -68.70212499 5.8670772 -75.31937063 6.24258292 C-81.74265542 6.60675108 -88.16642873 6.96155196 -94.59044266 7.312603 C-97.29076316 7.46033826 -99.99080891 7.61164285 -102.69083786 7.76475906 C-121.15789733 8.80579983 -139.50800152 9.19652782 -158 9 C-158 8.67 -158 8.34 -158 8 C-128.13042797 6.01249036 -98.24510055 4.3035465 -68.35510254 2.65658569 C-64.21915453 2.42863905 -60.08334267 2.19842615 -55.94763184 1.96621704 C-50.97237334 1.68709978 -45.99685353 1.41316655 -41.02110672 1.14289856 C-39.17366057 1.04181294 -37.32630161 0.93911745 -35.47904587 0.83460999 C-23.63876348 0.16651454 -11.85913756 -0.12766411 0 0 Z " fill="#176F1D" transform="translate(574,632)"/>
<path d="M0 0 C22.5732557 -0.26779123 45.0618293 0.47136817 67.6126709 1.39068604 C72.18627617 1.57586773 76.76014118 1.75440258 81.33398438 1.93359375 C90.22291439 2.28277118 99.11154339 2.63897281 108 3 C108 3.99 108 4.98 108 6 C100.17518221 5.73667595 92.35049318 5.46974241 84.52587891 5.20043945 C81.87063868 5.10921204 79.2153639 5.01927547 76.56005859 4.92993164 C50.91686541 4.06615076 50.91686541 4.06615076 38.51123047 3.21655273 C30.79100648 2.74041321 23.05351669 2.5988815 15.32226562 2.39453125 C13.42444336 2.33845703 13.42444336 2.33845703 11.48828125 2.28125 C10.35946533 2.25095703 9.23064941 2.22066406 8.06762695 2.18945312 C5.28194998 2.01741291 2.71548672 1.62545772 0 1 C0 0.67 0 0.34 0 0 Z " fill="#1C7D25" transform="translate(373,364)"/>
<path d="M0 0 C0.66 0 1.32 0 2 0 C1.97905273 0.68924561 1.95810547 1.37849121 1.93652344 2.08862305 C1.13611997 20.4994412 1.13611997 20.4994412 6 38 C6.43570312 38.95648437 6.87140625 39.91296875 7.3203125 40.8984375 C14.68868316 55.5949145 26.53281237 64.81727744 42 70 C45.31540413 70.83319057 48.61900608 71.49883497 52 72 C52 72.66 52 73.32 52 74 C38.9508206 73.93986553 26.56333129 67.66554917 17 59 C17 58.34 17 57.68 17 57 C16.34 57 15.68 57 15 57 C1.79749241 41.669936 -2.23298454 25.77836019 -1 6 C-0.71049262 3.99318746 -0.39702687 1.98833618 0 0 Z " fill="#166A1D" transform="translate(319,660)"/>
<path d="M0 0 C2.38487037 2.38487037 2.96103732 4.34183553 4.125 7.5 C8.44864131 18.0254825 15.12583879 25.38528088 25 31 C25.76183594 31.43441406 26.52367187 31.86882813 27.30859375 32.31640625 C37.38966198 36.94563278 51.22062823 36.68106373 61.84375 34.046875 C67.47615822 31.79960101 72.1948061 28.65612579 77 25 C77.66 25 78.32 25 79 25 C77.63143242 29.10570275 74.91257052 30.0844796 71.3125 32.0625 C70.69955078 32.41376953 70.08660156 32.76503906 69.45507812 33.12695312 C57.87324966 39.62407641 45.07780212 40.5178601 32.32421875 36.98046875 C18.52059548 32.34267791 8.73903013 22.90635612 1.98046875 10.0625 C0.35658214 6.62193659 -0.34496174 3.79457914 0 0 Z " fill="#14661B" transform="translate(605,803)"/>
<path d="M0 0 C2.05149742 2.67115793 3.89776308 5.39872857 5.6875 8.25 C12.32884367 18.13894448 21.04851998 25.48825709 33 28 C50.67574668 29.42768676 62.88702198 27.05263691 77 16 C77.66 15.67 78.32 15.34 79 15 C75.39137792 23.34830481 65.93794186 26.78122228 58 30 C46.62095459 33.79301514 33.70885686 32.3935508 22.9375 27.5 C13.15862827 22.21966559 4.34047553 14.43911837 0 4 C0 2.68 0 1.36 0 0 Z " fill="#15691D" transform="translate(384,810)"/>
<path d="M0 0 C0.495 0.99 0.495 0.99 1 2 C-0.55540821 4.61674558 -2.16529031 7.11146951 -3.875 9.625 C-18.02544081 30.9672049 -30.51030269 54.43751442 -38 79 C-38.66 79 -39.32 79 -40 79 C-42.09230769 74.56923077 -42.09230769 74.56923077 -41.625 71.6875 C-41.41875 71.130625 -41.2125 70.57375 -41 70 C-40.34 71.32 -39.68 72.64 -39 74 C-38.71769531 73.15824219 -38.43539063 72.31648438 -38.14453125 71.44921875 C-29.04005687 45.73775592 -15.82802348 22.12015133 0 0 Z " fill="#64B02A" transform="translate(537,417)"/>
<path d="M0 0 C2 1 2 1 2.8515625 3.3984375 C3.10679687 4.38070313 3.36203125 5.36296875 3.625 6.375 C3.88539063 7.35210937 4.14578125 8.32921875 4.4140625 9.3359375 C5 12 5 12 5 15 C6.7015625 14.9690625 6.7015625 14.9690625 8.4375 14.9375 C12 15 12 15 13 16 C15.88078841 16.23173505 18.74302638 16.40382799 21.62890625 16.53515625 C22.92525246 16.59962196 22.92525246 16.59962196 24.24778748 16.66539001 C27.01916252 16.80218412 29.79080302 16.93240825 32.5625 17.0625 C34.43687003 17.15386563 36.31121936 17.24565687 38.18554688 17.33789062 C42.79013862 17.5635404 47.39497889 17.78329684 52 18 C52.495 18.99 52.495 18.99 53 20 C36.96723069 20.13183175 21.01105858 19.85720604 5 19 C2.91822976 14.47714026 1.53773613 10.52757812 0.8125 5.5625 C0.65394531 4.51191406 0.49539063 3.46132813 0.33203125 2.37890625 C0.22246094 1.59386719 0.11289062 0.80882812 0 0 Z " fill="#197922" transform="translate(319,345)"/>
<path d="M0 0 C0 0.66 0 1.32 0 2 C-2 3.33333333 -4 4.66666667 -6 6 C-10.33386285 10.93163704 -10.3461262 15.71515359 -10.27734375 22.05078125 C-9.77204314 27.42404828 -7.30579556 29.90677581 -3.3125 33.25 C3.8805126 37.05008213 12.06847833 37.44631479 20.0625 38.125 C21.02349609 38.21136719 21.98449219 38.29773438 22.97460938 38.38671875 C25.31599448 38.59639503 27.65771078 38.8007244 30 39 C30 39.33 30 39.66 30 40 C1.25920686 40.76679982 1.25920686 40.76679982 -7.59765625 33.42578125 C-12.06327633 28.88552685 -13.25600684 25.31187326 -13.5 19.0625 C-13.28881522 13.61257007 -12.44088281 9.31855727 -9 5 C-3.51100244 0 -3.51100244 0 0 0 Z " fill="#176A1E" transform="translate(197,260)"/>
<path d="M0 0 C14.40438543 -0.62485655 24.92877001 -0.71151518 37.375 7.125 C44.03809888 14.42267972 48.31812648 23.6282415 47.88671875 33.625 C47.66333689 35.75879683 47.34162645 37.88191603 47 40 C46.67 40 46.34 40 46 40 C45.92523437 38.98421875 45.85046875 37.9684375 45.7734375 36.921875 C44.88763564 26.96934502 43.34189656 17.55159911 36.109375 10.03515625 C27.70004998 3.26465638 18.08200416 2.01424254 7.625 1.4375 C6.88894531 1.39431641 6.15289063 1.35113281 5.39453125 1.30664062 C3.59651932 1.20156201 1.79828042 1.10037907 0 1 C0 0.67 0 0.34 0 0 Z " fill="#17681B" transform="translate(748,381)"/>
<path d="M0 0 C0.33 0 0.66 0 1 0 C1.20708182 5.99983342 0.51673688 11.17802587 -0.8984375 16.99609375 C-1.19096909 18.24556541 -1.19096909 18.24556541 -1.4894104 19.52027893 C-2.10964991 22.16139103 -2.74199641 24.79942129 -3.375 27.4375 C-3.79249328 29.20358084 -4.20916711 30.9698556 -4.625 32.73632812 C-5.21420829 35.23804067 -5.8045107 37.73942883 -6.4012146 40.23936462 C-6.58125031 40.99367264 -6.76128601 41.74798065 -6.94677734 42.52514648 C-7.12263367 43.25619598 -7.29848999 43.98724548 -7.47967529 44.740448 C-7.846431 46.33311424 -8.18720296 47.93187394 -8.50909424 49.53421021 C-8.67447693 50.35057953 -8.83985962 51.16694885 -9.01025391 52.00805664 C-9.1531485 52.74939346 -9.29604309 53.49073029 -9.44326782 54.25453186 C-9.62698944 54.83053635 -9.81071106 55.40654083 -10 56 C-10.99 56.495 -10.99 56.495 -12 57 C-11.47019248 48.42445201 -9.63108377 40.22386933 -7.6875 31.875 C-7.37000556 30.49153668 -7.05286852 29.10799128 -6.73608398 27.72436523 C-4.60568161 18.45429146 -2.40167542 9.20393624 0 0 Z " fill="#166D1D" transform="translate(770,523)"/>
<path d="M0 0 C12.25041002 0.59276178 20.68503819 6.16804575 29 15 C31.25177905 17.8775366 33.18268234 20.83318903 35 24 C35.928125 25.5778125 35.928125 25.5778125 36.875 27.1875 C38.12862451 30.32156127 38.23894962 32.65470531 38 36 C35.53701631 32.30552446 33.7094827 28.36881616 31.83007812 24.35742188 C26.65490195 13.69724745 17.75724434 7.52936604 7 3 C4.67701656 2.22272797 2.37933658 1.59483414 0 1 C0 0.67 0 0.34 0 0 Z " fill="#146C1D" transform="translate(437,745)"/>
<path d="M0 0 C2.19026982 3.28540473 2.75513728 4.19075192 2 8 C-0.10469113 10.06277694 -2.11461171 11.78363168 -4.4375 13.5625 C-15.53557434 22.60278306 -21.97066823 32.66734011 -27 46 C-27.33 46 -27.66 46 -28 46 C-27.36520853 32.03458773 -17.26754552 21.72746944 -7.58203125 12.76171875 C-6.25446785 11.59375313 -4.91535084 10.43860922 -3.55859375 9.3046875 C-1.87806931 7.93695601 -1.87806931 7.93695601 0 6 C0.16681109 2.91652174 0.16681109 2.91652174 0 0 Z " fill="#136619" transform="translate(349,613)"/>
<path d="M0 0 C2.97024824 2.97024824 3.37302919 6.68477683 4.34765625 10.65625 C4.56441513 11.51432251 4.78117401 12.37239502 5.00450134 13.25646973 C5.69709996 16.00270434 6.3802163 18.75118626 7.0625 21.5 C7.74995519 24.24838105 8.43937791 26.99624783 9.13121033 29.74353027 C9.56150535 31.4544693 9.98896285 33.16612488 10.41334534 34.87854004 C11.40779113 39.04360685 11.40779113 39.04360685 13 43 C13.039992 44.99960012 13.04346799 47.00047242 13 49 C11 48 11 48 10.34188843 46.32563782 C10.15091583 45.59983017 9.95994324 44.87402252 9.76318359 44.1262207 C9.43306778 42.89407585 9.43306778 42.89407585 9.09628296 41.63703918 C8.86599396 40.74232407 8.63570496 39.84760895 8.3984375 38.92578125 C8.1571109 38.00919235 7.9157843 37.09260345 7.66714478 36.14823914 C7.15725946 34.20313525 6.65146747 32.25695454 6.14941406 30.30981445 C5.38196635 27.33946276 4.59824779 24.37375942 3.8125 21.40820312 C3.31932323 19.51848707 2.82710489 17.62852057 2.3359375 15.73828125 C2.10160004 14.85368729 1.86726257 13.96909332 1.62582397 13.05769348 C0.48722932 8.59865817 -0.28360623 4.64535622 0 0 Z " fill="#14681A" transform="translate(324,517)"/>
<path d="M0 0 C-3.12809004 1.64558291 -6.3205214 2.87819145 -9.625 4.125 C-23.46346051 9.87977443 -30.88213933 19.78975219 -37 33 C-38.14287668 29.56380125 -38.00719442 29.01814246 -36.5625 25.375 C-30.08796577 13.50870347 -20.95636764 5.34561734 -8.2734375 0.64453125 C-5.44655802 -0.15690366 -2.91836978 -0.30719682 0 0 Z " fill="#146C1C" transform="translate(644,745)"/>
<path d="M0 0 C5.19355461 1.37476445 8.00427491 4.74341593 11 9 C12.81709841 14.45129524 12.81891217 19.8754545 10.5 25.1875 C8.04685052 29.57503259 4.39605862 32.61692099 0 35 C-0.99 35 -1.98 35 -3 35 C-3 34.34 -3 33.68 -3 33 C-2.113125 32.62875 -1.22625 32.2575 -0.3125 31.875 C3.94187978 29.4668605 6.8200412 26.72298184 8.8125 22.125 C9.45595263 14.83253682 9.34951727 10.99528057 5 5 C2.38142305 3.21037181 2.38142305 3.21037181 0 2 C0 1.34 0 0.68 0 0 Z " fill="#186B1F" transform="translate(725,699)"/>
<path d="M0 0 C0 0.33 0 0.66 0 1 C-17.03732794 2.49116278 -33.89716298 3.30586997 -51 3 C-51 2.67 -51 2.34 -51 2 C-34.29028927 -1.04045195 -16.90252646 -0.11659389 0 0 Z " fill="#166B1B" transform="translate(655,589)"/>
<path d="M0 0 C6.46400701 0.16574377 10.52879753 3.69523823 15 8 C22.65520506 17.08633687 27.51049325 25.05603531 28 37 C26.13883252 34.20824878 25.32440131 32.15017239 24.3125 29 C20.47388094 18.25186663 13.97488912 7.84202124 3.5625 2.5625 C2.386875 2.046875 1.21125 1.53125 0 1 C0 0.67 0 0.34 0 0 Z " fill="#15691C" transform="translate(281,269)"/>
<path d="M0 0 C0.66 0.33 1.32 0.66 2 1 C2.66264728 16.36973545 1.12704625 29.55321163 -9 42 C-9.66 42 -10.32 42 -11 42 C-9.89078738 38.77319966 -8.45502712 36.12278877 -6.5625 33.3125 C-0.11854818 23.00978058 -0.35117567 11.7946586 0 0 Z " fill="#166B1E" transform="translate(475,782)"/>
<path d="M0 0 C0.66 0 1.32 0 2 0 C2.91305022 14.12184342 0.67277134 26.79787483 -7.66796875 38.59375 C-8.10753906 39.0578125 -8.54710937 39.521875 -9 40 C-9.66 40 -10.32 40 -11 40 C-9.98968295 37.13743503 -8.95620996 34.94161328 -7.125 32.5 C-0.65703421 22.95551116 -0.28555768 11.12247169 0 0 Z " fill="#176B1F" transform="translate(699,784)"/>
<path d="M0 0 C-0.96099609 0.54527344 -0.96099609 0.54527344 -1.94140625 1.1015625 C-14.54590167 8.42757325 -22.45055615 16.81643975 -27 31 C-27.33 31 -27.66 31 -28 31 C-27.81324902 21.10219802 -22.16690648 14.00338894 -15.5 7.0625 C-5.99976673 -1.95220176 -5.99976673 -1.95220176 0 0 Z " fill="#136B1C" transform="translate(410,749)"/>
<path d="M0 0 C0 0.66 0 1.32 0 2 C-1.19342452 3.04239561 -2.43136204 4.03409725 -3.6875 5 C-9.25855427 9.80911612 -12.58421196 14.890467 -13.3359375 22.3203125 C-13.39693164 27.6755976 -12.96224794 32.73129815 -12 38 C-16.51731121 32.30425978 -16.64962757 27.07166008 -16 20 C-14.35163333 13.22779476 -8.30613123 0 0 0 Z " fill="#156D1E" transform="translate(373,650)"/>
<path d="M0 0 C4.47997691 -0.02504287 8.95991485 -0.04301921 13.43994141 -0.05493164 C14.95850333 -0.05990685 16.4770606 -0.06668941 17.99560547 -0.07543945 C27.05422701 -0.1262634 35.9789916 0.03221644 45 1 C45 1.33 45 1.66 45 2 C35.75970251 2.96253099 26.71670491 3.01867604 17.4375 2.625 C16.40302734 2.58189697 15.36855469 2.53879395 14.30273438 2.49438477 C9.46542472 2.26364225 4.75959943 1.96005595 0 1 C0 0.67 0 0.34 0 0 Z " fill="#17701C" transform="translate(424,405)"/>
<path d="M0 0 C31.32040447 -0.20638953 31.32040447 -0.20638953 45 1 C45 1.33 45 1.66 45 2 C35.00585544 2.73486357 25.14125582 3.14478156 15.125 2.625 C13.86961426 2.56034546 13.86961426 2.56034546 12.58886719 2.49438477 C8.64381983 2.25898567 4.85708975 1.92132913 1 1 C0.67 1.66 0.34 2.32 0 3 C0 2.01 0 1.02 0 0 Z " fill="#15691A" transform="translate(333,401)"/>
<path d="M0 0 C2.06164353 3.09246529 2.76386636 5.34595344 3.69140625 8.91796875 C4.14870117 10.67657227 4.14870117 10.67657227 4.61523438 12.47070312 C4.92783203 13.69724609 5.24042969 14.92378906 5.5625 16.1875 C5.87896484 17.39470703 6.19542969 18.60191406 6.52148438 19.84570312 C8.07977072 25.89688301 9.43395507 31.77350581 10 38 C9.34 37.67 8.68 37.34 8 37 C7.5 33.5 7.5 33.5 7 30 C6.34 29.67 5.68 29.34 5 29 C4.47265625 26.91796875 4.47265625 26.91796875 4.0625 24.1875 C3.21192826 18.9615872 1.99203522 13.92654365 0.5859375 8.82421875 C-0.03918977 5.81110531 -0.09972113 3.0686912 0 0 Z " fill="#166B1C" transform="translate(283,358)"/>
<path d="M0 0 C0.66 0 1.32 0 2 0 C-0.67396052 8.36323822 -4.01993648 16.17711654 -8 24 C-5.69 24.33 -3.38 24.66 -1 25 C-1 25.33 -1 25.66 -1 26 C-4.63 26 -8.26 26 -12 26 C-11.38511719 24.70964844 -10.77023437 23.41929687 -10.13671875 22.08984375 C-9.32024286 20.37242894 -8.5038405 18.65497917 -7.6875 16.9375 C-7.28337891 16.08994141 -6.87925781 15.24238281 -6.46289062 14.36914062 C-4.20646417 9.61780361 -2.03382976 4.85091435 0 0 Z " fill="#186F1B" transform="translate(726,392)"/>
<path d="M0 0 C13.53 0 27.06 0 41 0 C41 0.99 41 1.98 41 3 C27.47 2.34 13.94 1.68 0 1 C0 0.67 0 0.34 0 0 Z " fill="#176918" transform="translate(440,367)"/>
<path d="M0 0 C0.33 0 0.66 0 1 0 C1.02505615 0.64026123 1.0501123 1.28052246 1.07592773 1.94018555 C1.1923546 4.85613726 1.31486867 7.7718029 1.4375 10.6875 C1.47681641 11.69490234 1.51613281 12.70230469 1.55664062 13.74023438 C1.59853516 14.71669922 1.64042969 15.69316406 1.68359375 16.69921875 C1.72025146 17.59471436 1.75690918 18.49020996 1.79467773 19.4128418 C2.00061751 22.00778088 2.43767822 24.46054684 3 27 C1.68 27 0.36 27 -1 27 C-1.22821192 23.81360234 -1.42892029 20.62602344 -1.625 17.4375 C-1.68945312 16.54224609 -1.75390625 15.64699219 -1.8203125 14.72460938 C-2.13783653 9.30685566 -1.83935647 5.11790408 0 0 Z " fill="#187323" transform="translate(381,781)"/>
<path d="M0 0 C-2.78945211 2.78945211 -4.86065409 2.95294886 -8.74902344 3.11352539 C-9.77543945 3.10828857 -10.80185547 3.10305176 -11.859375 3.09765625 C-12.97441406 3.09443359 -14.08945312 3.09121094 -15.23828125 3.08789062 C-16.39714844 3.07951172 -17.55601562 3.07113281 -18.75 3.0625 C-19.92433594 3.05798828 -21.09867188 3.05347656 -22.30859375 3.04882812 C-25.20578072 3.03705094 -28.10286454 3.02060326 -31 3 C-27.17114619 0.90580854 -23.73797047 0.56850096 -19.4375 0.375 C-18.73238281 0.33705322 -18.02726563 0.29910645 -17.30078125 0.26000977 C-11.53342765 -0.0290133 -5.77394179 -0.11009635 0 0 Z " fill="#187720" transform="translate(710,585)"/>
<path d="M0 0 C11.03034265 -0.18115526 21.99051677 0.385313 33 1 C33 1.33 33 1.66 33 2 C29.54227657 2.20005983 26.08383018 2.38267635 22.625 2.5625 C21.65949219 2.61857422 20.69398438 2.67464844 19.69921875 2.73242188 C13.3574194 3.05163996 7.29611775 2.82870943 1 2 C0.67 2.66 0.34 3.32 0 4 C0 2.68 0 1.36 0 0 Z " fill="#1F8126" transform="translate(731,379)"/>
<path d="M0 0 C24.59814667 -0.23157251 24.59814667 -0.23157251 31 1 C31.66 1.66 32.32 2.32 33 3 C21.83190472 3.2964981 11.07099954 2.42033442 0 1 C0 0.67 0 0.34 0 0 Z " fill="#15691C" transform="translate(233,262)"/>
<path d="M0 0 C0.33 0 0.66 0 1 0 C1.5854382 9.39488925 -4.21823833 17.41767005 -9.703125 24.671875 C-10.34507812 25.32929687 -10.34507812 25.32929687 -11 26 C-11.66 26 -12.32 26 -13 26 C-11.48228612 22.7617095 -9.62306669 19.89969931 -7.625 16.9375 C-4.14097491 11.54053421 -1.90428695 6.11500841 0 0 Z " fill="#15681B" transform="translate(757,581)"/>
<path d="M0 0 C7.57460196 0.94682524 14.26811214 6.74286132 19.25 12.3125 C19.8275 13.199375 20.405 14.08625 21 15 C20.67 15.99 20.34 16.98 20 18 C19.56171875 17.443125 19.1234375 16.88625 18.671875 16.3125 C13.84894588 10.50930073 8.73875153 6.52021135 2.34375 2.53125 C1.5703125 2.0259375 0.796875 1.520625 0 1 C0 0.67 0 0.34 0 0 Z " fill="#156F1F" transform="translate(671,748)"/>
<path d="M0 0 C0 0.33 0 0.66 0 1 C-7.06888778 1.85214779 -14.0088832 2.12746455 -21.125 2.0625 C-22.08148437 2.05798828 -23.03796875 2.05347656 -24.0234375 2.04882812 C-26.34902758 2.03720017 -28.6744776 2.02086102 -31 2 C-27.17907237 -0.08514227 -23.72978556 -0.4701627 -19.4375 -0.6875 C-18.73238281 -0.7280249 -18.02726563 -0.7685498 -17.30078125 -0.81030273 C-11.46862425 -1.09196941 -5.78851327 -0.79714695 0 0 Z " fill="#126B19" transform="translate(602,592)"/>
<path d="M0 0 C0.33 0 0.66 0 1 0 C0.67 7.59 0.34 15.18 0 23 C-2.53256591 20.46743409 -2.26056785 18.83957909 -2.2734375 15.38085938 C-2.26570312 14.65705078 -2.25796875 13.93324219 -2.25 13.1875 C-2.25773438 12.47529297 -2.26546875 11.76308594 -2.2734375 11.02929688 C-2.25819813 6.91085653 -1.83270466 3.70177252 0 0 Z " fill="#16691E" transform="translate(605,779)"/>
<path d="M0 0 C2.70331017 2.70331017 3.19915686 5.71542796 4.125 9.3125 C4.30675781 9.97701172 4.48851562 10.64152344 4.67578125 11.32617188 C5.63204455 14.9606914 6.21811505 18.24115057 6 22 C5.34 22 4.68 22 4 22 C3.32438628 19.4604163 2.65934172 16.91881165 2 14.375 C1.80921875 13.66214844 1.6184375 12.94929688 1.421875 12.21484375 C0.34982713 8.04151456 -0.21946814 4.34821249 0 0 Z " fill="#156A1C" transform="translate(318,494)"/>
<path d="M0 0 C0.66 0 1.32 0 2 0 C0.51453018 3.78878256 -1.53714194 5.37665051 -4.875 7.625 C-5.73867188 8.21539063 -6.60234375 8.80578125 -7.4921875 9.4140625 C-13.33723197 13.11046134 -13.33723197 13.11046134 -16.25 12.625 C-16.8275 12.41875 -17.405 12.2125 -18 12 C-17.11957031 11.55269531 -16.23914063 11.10539063 -15.33203125 10.64453125 C-14.17058594 10.03996094 -13.00914062 9.43539062 -11.8125 8.8125 C-10.08966797 7.92498047 -10.08966797 7.92498047 -8.33203125 7.01953125 C-5.00861238 5.00521993 -2.6938269 2.77038326 0 0 Z " fill="#16691C" transform="translate(741,608)"/>
<path d="M0 0 C0.99 0.495 0.99 0.495 2 1 C2.33333333 3.33333333 2.66666667 5.66666667 3 8 C3.66 8.33 4.32 8.66 5 9 C5.4140625 11.94140625 5.4140625 11.94140625 5.625 15.5625 C5.69976562 16.76003906 5.77453125 17.95757812 5.8515625 19.19140625 C5.90054687 20.11824219 5.94953125 21.04507812 6 22 C3.6567955 18.48519325 2.84632099 15.04357331 1.875 11 C1.69324219 10.27554687 1.51148438 9.55109375 1.32421875 8.8046875 C0.58699203 5.80035004 0 3.10482716 0 0 Z " fill="#146C1A" transform="translate(339,424)"/>
<path d="M0 0 C0.66 0.33 1.32 0.66 2 1 C1.38125 1.2475 0.7625 1.495 0.125 1.75 C-2.10724301 2.79521082 -2.10724301 2.79521082 -2.84375 4.78125 C-4.33590297 7.64457057 -6.31382204 9.50485569 -8.625 11.75 C-9.85089844 12.94882812 -9.85089844 12.94882812 -11.1015625 14.171875 C-11.72804688 14.77515625 -12.35453125 15.3784375 -13 16 C-13 12.47967572 -12.29648649 11.5614657 -10 9 C-9.34 9 -8.68 9 -8 9 C-7.79375 8.443125 -7.5875 7.88625 -7.375 7.3125 C-5.44999226 4.07498698 -2.96149098 2.31768859 0 0 Z " fill="#68B42C" transform="translate(575,393)"/>
<path d="M0 0 C1.216875 -0.00515625 2.43375 -0.0103125 3.6875 -0.015625 C6.75288791 0.23018441 8.43662952 0.6350766 11 2.25 C3.50824535 3.3273541 -3.48905184 3.0888516 -11 2.25 C-7.36211946 -0.04186474 -4.2381715 -0.01795835 0 0 Z " fill="#187021" transform="translate(652,838.75)"/>
<path d="M0 0 C0.79664063 0.40992188 1.59328125 0.81984375 2.4140625 1.2421875 C3.47367187 1.78101563 4.53328125 2.31984375 5.625 2.875 C6.66914063 3.40867187 7.71328125 3.94234375 8.7890625 4.4921875 C11.81801625 5.91454291 14.80643334 7.0122001 18 8 C18 8.66 18 9.32 18 10 C10.90897923 8.87444115 5.48357641 6.77058184 0 2 C0 1.34 0 0.68 0 0 Z " fill="#136A1B" transform="translate(362,688)"/>
<path d="M0 0 C0.66 0 1.32 0 2 0 C3.85743168 6.11404596 5.42765417 11.58518742 5 18 C3.15963319 15.23944978 2.31655886 13.25401883 1.375 10.125 C1.11460937 9.28195312 0.85421875 8.43890625 0.5859375 7.5703125 C-0.00963022 4.95775542 -0.10525251 2.66958629 0 0 Z " fill="#146B1A" transform="translate(334,405)"/>
<path d="M0 0 C1.1875 1.625 1.1875 1.625 2 4 C1.03863929 6.01885749 0.02930047 8.01492052 -1 10 C-1.82675658 13.3070263 -2.435429 16.63914202 -3 20 C-3.33 20 -3.66 20 -4 20 C-4.38307318 13.23237384 -3.17688744 7.41787022 -1 1 C-0.67 0.67 -0.34 0.34 0 0 Z " fill="#63AD29" transform="translate(493,388)"/>
<path d="M0 0 C1.9507829 2.92617435 2.71513462 5.02044581 3.625 8.375 C3.88539063 9.31085938 4.14578125 10.24671875 4.4140625 11.2109375 C4.97925133 13.90123635 5.10954217 16.26144571 5 19 C3 18 3 18 2.1484375 15.48828125 C1.89320313 14.44027344 1.63796875 13.39226562 1.375 12.3125 C1.11460937 11.27738281 0.85421875 10.24226563 0.5859375 9.17578125 C0.00698506 6.03785903 -0.1049677 3.18242993 0 0 Z " fill="#136118" transform="translate(299,420)"/>
<path d="M0 0 C2 1 2 1 2.8515625 3.29296875 C5.41470311 12.88532831 5.41470311 12.88532831 5 18 C2.59881473 15.59881473 2.24779139 13.94503958 1.375 10.6875 C1.11460937 9.74261719 0.85421875 8.79773438 0.5859375 7.82421875 C0.02520352 5.12148098 -0.1101876 2.74968152 0 0 Z " fill="#146D1C" transform="translate(371,547)"/>
<path d="M0 0 C0.33 0 0.66 0 1 0 C1.67023034 4.46820229 0.7697762 6.77382521 -1.8125 10.3125 C-3.92182709 13.0468129 -4.64247337 13.88082446 -8 15 C-8 14.34 -8 13.68 -8 13 C-7.4225 12.484375 -6.845 11.96875 -6.25 11.4375 C-3.13282398 8.06055932 -1.69842305 4.22798928 0 0 Z " fill="#146B1A" transform="translate(721,569)"/>
<path d="M0 0 C0.66 0 1.32 0 2 0 C1.01 3.63 0.02 7.26 -1 11 C-1.66 11 -2.32 11 -3 11 C-5.09230769 6.56923077 -5.09230769 6.56923077 -4.625 3.6875 C-4.41875 3.130625 -4.2125 2.57375 -4 2 C-3.34 3.32 -2.68 4.64 -2 6 C-1.34 4.02 -0.68 2.04 0 0 Z " fill="#6BBA30" transform="translate(500,485)"/>
<path d="M0 0 C0.33 0 0.66 0 1 0 C1.22262303 6.7281627 0.95021536 12.53991163 -1 19 C-1.33 19 -1.66 19 -2 19 C-2.21432579 12.35590042 -1.51233701 6.46794133 0 0 Z " fill="#67B32C" transform="translate(726,321)"/>
<path d="M0 0 C0.66 0.33 1.32 0.66 2 1 C1.48050781 1.50789063 0.96101562 2.01578125 0.42578125 2.5390625 C-3.6224371 6.53490094 -7.44650891 10.55813614 -11 15 C-11 11.30165104 -10.18635778 10.72918572 -7.75 8.0625 C-7.11449219 7.36253906 -6.47898437 6.66257812 -5.82421875 5.94140625 C-3.92272554 3.91776145 -2.00339585 1.92326002 0 0 Z " fill="#66AF2D" transform="translate(525,337)"/>
<path d="M0 0 C0.33 0 0.66 0 1 0 C1.22577402 5.4185766 0.46670113 9.77487721 -1 15 C-1.66 15 -2.32 15 -3 15 C-2.5547115 9.72684667 -1.91626837 4.98229776 0 0 Z " fill="#156D1C" transform="translate(791,432)"/>
<path d="M0 0 C3.47478479 3.01148016 4.97043629 5.50735835 6 10 C5.54296875 12.1875 5.54296875 12.1875 5 14 C4.35089846 12.41800369 3.70585306 10.83434276 3.0625 9.25 C2.70285156 8.36828125 2.34320313 7.4865625 1.97265625 6.578125 C1.14643424 4.38813896 0.50630057 2.28101729 0 0 Z " fill="#166D1D" transform="translate(267,305)"/>
<path d="M0 0 C0.99 1.485 0.99 1.485 2 3 C2.680625 4.010625 3.36125 5.02125 4.0625 6.0625 C6 9 6 9 7 11 C5.1875 10.8125 5.1875 10.8125 3 10 C0.37665094 6.62712264 -0.36372697 4.24348127 0 0 Z " fill="#145C19" transform="translate(185,282)"/>
<path d="M0 0 C3.94120709 0.56302958 6.7508723 1.6791945 10 4 C10 4.66 10 5.32 10 6 C5.56909529 4.79157144 3.01887244 3.48331435 0 0 Z " fill="#187023" transform="translate(622,831)"/>
<path d="M0 0 C1.98 1.65 3.96 3.3 6 5 C5.67 5.99 5.34 6.98 5 8 C3.02 5.69 1.04 3.38 -1 1 C-0.67 0.67 -0.34 0.34 0 0 Z " fill="#177123" transform="translate(392,823)"/>
<path d="M0 0 C0.99 0.495 0.99 0.495 2 1 C2.4140625 3.28515625 2.4140625 3.28515625 2.625 6.0625 C2.69976562 6.98160156 2.77453125 7.90070312 2.8515625 8.84765625 C2.92503906 9.91306641 2.92503906 9.91306641 3 11 C0.2441427 6.86621405 -0.10756445 4.94796454 0 0 Z " fill="#146919" transform="translate(376,566)"/>
<path d="M0 0 C2.56616632 3.84924948 2.55097676 6.4349304 3 11 C1 10 1 10 0 7 C-0.03954234 4.66700175 -0.04401732 2.33291811 0 0 Z " fill="#136519" transform="translate(290,385)"/>
<path d="M0 0 C0.33 0 0.66 0 1 0 C1.66 3.3 2.32 6.6 3 10 C1.68 10 0.36 10 -1 10 C-0.67 6.7 -0.34 3.4 0 0 Z " fill="#15611A" transform="translate(381,798)"/>
<path d="M0 0 C0.66 0 1.32 0 2 0 C3.1577506 3.47325181 3.06866652 6.36067448 3 10 C0.70366176 6.55549263 0.45983515 4.06187717 0 0 Z " fill="#146C1A" transform="translate(363,517)"/>
<path d="M0 0 C0.33 0.99 0.66 1.98 1 3 C-0.9375 6.1875 -0.9375 6.1875 -3 9 C-3.66 8.34 -4.32 7.68 -5 7 C-3.35 4.69 -1.7 2.38 0 0 Z " fill="#187421" transform="translate(332,635)"/>
<path d="M0 0 C1.125 1.75 1.125 1.75 2 4 C1.125 6.25 1.125 6.25 0 8 C-0.66 7.67 -1.32 7.34 -2 7 C-1.125 1.125 -1.125 1.125 0 0 Z " fill="#68B72E" transform="translate(493,388)"/>
<path d="M0 0 C4 1 4 1 4 1 Z " fill="#39A93B" transform="translate(544,592)"/>
<path d="" fill="#279536" transform="translate(0,0)"/>
<path d="" fill="#279B39" transform="translate(0,0)"/>
<path d="" fill="#78C43E" transform="translate(0,0)"/>
<path d="" fill="#7DC93F" transform="translate(0,0)"/>
<path d="" fill="#249D3A" transform="translate(0,0)"/>
<path d="M0 0 C2 1 2 1 2 1 Z " fill="#239D3C" transform="translate(667,744)"/>
<path d="" fill="#269E3A" transform="translate(0,0)"/>
<path d="M0 0 C2 1 2 1 2 1 Z " fill="#269E38" transform="translate(388,601)"/>
<path d="M0 0 C2 1 2 1 2 1 Z " fill="#36A83B" transform="translate(553,592)"/>
<path d="M0 0 C2 1 2 1 2 1 Z " fill="#2BA03A" transform="translate(689,584)"/>
<path d="" fill="#259B38" transform="translate(0,0)"/>
<path d="M0 0 C2 1 2 1 2 1 Z " fill="#29A139" transform="translate(712,580)"/>
<path d="" fill="#269B36" transform="translate(0,0)"/>
<path d="" fill="#2B9F38" transform="translate(0,0)"/>
<path d="" fill="#289838" transform="translate(0,0)"/>
<path d="" fill="#77C63E" transform="translate(0,0)"/>
<path d="" fill="#75C33D" transform="translate(0,0)"/>
<path d="" fill="#75C33B" transform="translate(0,0)"/>
<path d="" fill="#2A9D3C" transform="translate(0,0)"/>
<path d="M0 0 C2 1 2 1 2 1 Z " fill="#28A036" transform="translate(396,406)"/>
<path d="M0 0 C2 1 2 1 2 1 Z " fill="#299F37" transform="translate(376,405)"/>
<path d="" fill="#2A9E39" transform="translate(0,0)"/>
<path d="M0 0 C2 1 2 1 2 1 Z " fill="#7CC740" transform="translate(616,360)"/>
<path d="M0 0 C2 1 2 1 2 1 Z " fill="#7DC740" transform="translate(632,352)"/>
<path d="" fill="#73C340" transform="translate(0,0)"/>
<path d="" fill="#269D3A" transform="translate(0,0)"/>
<path d="M0 0 C2 1 2 1 2 1 Z " fill="#7BC23C" transform="translate(545,320)"/>
<path d="M0 0 C2 1 2 1 2 1 Z " fill="#7BC43D" transform="translate(584,304)"/>
<path d="M0 0 C2 1 2 1 2 1 Z " fill="#289C3B" transform="translate(236,303)"/>
<path d="M0 0 C2 1 2 1 2 1 Z " fill="#28993A" transform="translate(211,257)"/>
<path d="" fill="#2B462A" transform="translate(0,0)"/>
<path d="" fill="#269036" transform="translate(0,0)"/>
<path d="" fill="#299238" transform="translate(0,0)"/>
<path d="" fill="#249435" transform="translate(0,0)"/>
<path d="" fill="#26943A" transform="translate(0,0)"/>
<path d="" fill="#27963B" transform="translate(0,0)"/>
<path d="" fill="#289639" transform="translate(0,0)"/>
<path d="" fill="#269637" transform="translate(0,0)"/>
<path d="" fill="#26963A" transform="translate(0,0)"/>
<path d="" fill="#249536" transform="translate(0,0)"/>
<path d="" fill="#27963A" transform="translate(0,0)"/>
<path d="" fill="#26973C" transform="translate(0,0)"/>
<path d="" fill="#269639" transform="translate(0,0)"/>
<path d="" fill="#279C39" transform="translate(0,0)"/>
<path d="" fill="#299939" transform="translate(0,0)"/>
<path d="" fill="#289B3A" transform="translate(0,0)"/>
<path d="" fill="#28983C" transform="translate(0,0)"/>
<path d="" fill="#269A3A" transform="translate(0,0)"/>
<path d="" fill="#299D3B" transform="translate(0,0)"/>
<path d="" fill="#24983A" transform="translate(0,0)"/>
<path d="" fill="#269A38" transform="translate(0,0)"/>
<path d="" fill="#239B39" transform="translate(0,0)"/>
<path d="" fill="#259E38" transform="translate(0,0)"/>
<path d="" fill="#269D3A" transform="translate(0,0)"/>
<path d="" fill="#24A03A" transform="translate(0,0)"/>
<path d="" fill="#279E3B" transform="translate(0,0)"/>
<path d="" fill="#299F3B" transform="translate(0,0)"/>
<path d="" fill="#249B3B" transform="translate(0,0)"/>
<path d="" fill="#239A3A" transform="translate(0,0)"/>
<path d="" fill="#279E38" transform="translate(0,0)"/>
<path d="" fill="#259A3A" transform="translate(0,0)"/>
<path d="" fill="#279B3C" transform="translate(0,0)"/>
<path d="" fill="#279B3A" transform="translate(0,0)"/>
<path d="" fill="#299837" transform="translate(0,0)"/>
<path d="" fill="#29993C" transform="translate(0,0)"/>
<path d="" fill="#29993A" transform="translate(0,0)"/>
<path d="" fill="#2B9438" transform="translate(0,0)"/>
<path d="" fill="#2A983A" transform="translate(0,0)"/>
<path d="" fill="#2A963B" transform="translate(0,0)"/>
<path d="" fill="#28A33D" transform="translate(0,0)"/>
<path d="" fill="#29A039" transform="translate(0,0)"/>
<path d="" fill="#259B39" transform="translate(0,0)"/>
<path d="" fill="#28A038" transform="translate(0,0)"/>
<path d="" fill="#279E3B" transform="translate(0,0)"/>
<path d="" fill="#279D3C" transform="translate(0,0)"/>
<path d="" fill="#249B37" transform="translate(0,0)"/>
<path d="" fill="#279A37" transform="translate(0,0)"/>
<path d="" fill="#279D38" transform="translate(0,0)"/>
<path d="" fill="#3EAE39" transform="translate(0,0)"/>
<path d="" fill="#3EA937" transform="translate(0,0)"/>
<path d="" fill="#39A83B" transform="translate(0,0)"/>
<path d="" fill="#3DAA3B" transform="translate(0,0)"/>
<path d="" fill="#2BA238" transform="translate(0,0)"/>
<path d="" fill="#2AA537" transform="translate(0,0)"/>
<path d="" fill="#2A9F3A" transform="translate(0,0)"/>
<path d="" fill="#2AA13A" transform="translate(0,0)"/>
<path d="" fill="#289B38" transform="translate(0,0)"/>
<path d="" fill="#28A13A" transform="translate(0,0)"/>
<path d="" fill="#6EC13D" transform="translate(0,0)"/>
<path d="" fill="#2A9F3A" transform="translate(0,0)"/>
<path d="" fill="#2AA23A" transform="translate(0,0)"/>
<path d="" fill="#2CA139" transform="translate(0,0)"/>
<path d="" fill="#299F3B" transform="translate(0,0)"/>
<path d="" fill="#269A38" transform="translate(0,0)"/>
<path d="" fill="#289C3A" transform="translate(0,0)"/>
<path d="" fill="#279C39" transform="translate(0,0)"/>
<path d="" fill="#279B39" transform="translate(0,0)"/>
<path d="" fill="#78C740" transform="translate(0,0)"/>
<path d="" fill="#289B38" transform="translate(0,0)"/>
<path d="" fill="#77C341" transform="translate(0,0)"/>
<path d="" fill="#269C39" transform="translate(0,0)"/>
<path d="" fill="#7CC83F" transform="translate(0,0)"/>
<path d="" fill="#2C9B3A" transform="translate(0,0)"/>
<path d="" fill="#29A03A" transform="translate(0,0)"/>
<path d="" fill="#2A9D3B" transform="translate(0,0)"/>
<path d="" fill="#2BA138" transform="translate(0,0)"/>
<path d="" fill="#269B37" transform="translate(0,0)"/>
<path d="" fill="#279C3A" transform="translate(0,0)"/>
<path d="" fill="#2B9F39" transform="translate(0,0)"/>
<path d="" fill="#2FA239" transform="translate(0,0)"/>
<path d="" fill="#289B3A" transform="translate(0,0)"/>
<path d="" fill="#2B9E39" transform="translate(0,0)"/>
<path d="" fill="#7AC742" transform="translate(0,0)"/>
<path d="" fill="#7CCB3F" transform="translate(0,0)"/>
<path d="" fill="#79C440" transform="translate(0,0)"/>
<path d="" fill="#2B9F3F" transform="translate(0,0)"/>
<path d="" fill="#77C541" transform="translate(0,0)"/>
<path d="" fill="#2BA338" transform="translate(0,0)"/>
<path d="" fill="#7AC73D" transform="translate(0,0)"/>
<path d="" fill="#2A9837" transform="translate(0,0)"/>
<path d="" fill="#2FA53A" transform="translate(0,0)"/>
<path d="" fill="#78C63F" transform="translate(0,0)"/>
<path d="" fill="#2EA83B" transform="translate(0,0)"/>
<path d="" fill="#77C63F" transform="translate(0,0)"/>
<path d="" fill="#2DA33C" transform="translate(0,0)"/>
<path d="" fill="#2A9B3A" transform="translate(0,0)"/>
<path d="" fill="#75C542" transform="translate(0,0)"/>
<path d="" fill="#289B3B" transform="translate(0,0)"/>
<path d="" fill="#279B38" transform="translate(0,0)"/>
<path d="" fill="#77C53D" transform="translate(0,0)"/>
<path d="" fill="#79C73D" transform="translate(0,0)"/>
<path d="" fill="#2B9A37" transform="translate(0,0)"/>
<path d="" fill="#7BC93C" transform="translate(0,0)"/>
<path d="" fill="#7BC73E" transform="translate(0,0)"/>
<path d="" fill="#71C13F" transform="translate(0,0)"/>
<path d="" fill="#73C53D" transform="translate(0,0)"/>
<path d="" fill="#299E3C" transform="translate(0,0)"/>
<path d="" fill="#77C441" transform="translate(0,0)"/>
<path d="" fill="#2B9D3A" transform="translate(0,0)"/>
<path d="" fill="#27983C" transform="translate(0,0)"/>
<path d="" fill="#74C53C" transform="translate(0,0)"/>
<path d="" fill="#72C23C" transform="translate(0,0)"/>
<path d="" fill="#78C73C" transform="translate(0,0)"/>
<path d="" fill="#299F38" transform="translate(0,0)"/>
<path d="" fill="#71C33C" transform="translate(0,0)"/>
<path d="" fill="#29A43D" transform="translate(0,0)"/>
<path d="" fill="#2DA138" transform="translate(0,0)"/>
<path d="" fill="#36A739" transform="translate(0,0)"/>
<path d="" fill="#3FA93E" transform="translate(0,0)"/>
<path d="" fill="#71C23B" transform="translate(0,0)"/>
<path d="" fill="#44AF3C" transform="translate(0,0)"/>
<path d="" fill="#4CAF3B" transform="translate(0,0)"/>
<path d="" fill="#2DA338" transform="translate(0,0)"/>
<path d="" fill="#40A83C" transform="translate(0,0)"/>
<path d="" fill="#27A036" transform="translate(0,0)"/>
<path d="" fill="#2AA039" transform="translate(0,0)"/>
<path d="" fill="#2AA037" transform="translate(0,0)"/>
<path d="" fill="#27A239" transform="translate(0,0)"/>
<path d="" fill="#7AC93E" transform="translate(0,0)"/>
<path d="" fill="#299B3A" transform="translate(0,0)"/>
<path d="" fill="#269E3B" transform="translate(0,0)"/>
<path d="" fill="#2E9E3B" transform="translate(0,0)"/>
<path d="" fill="#7BC83F" transform="translate(0,0)"/>
<path d="" fill="#79C73C" transform="translate(0,0)"/>
<path d="" fill="#7AC73C" transform="translate(0,0)"/>
<path d="" fill="#299D3B" transform="translate(0,0)"/>
<path d="" fill="#3EA938" transform="translate(0,0)"/>
<path d="" fill="#78C93E" transform="translate(0,0)"/>
<path d="" fill="#77C63D" transform="translate(0,0)"/>
<path d="" fill="#77C43E" transform="translate(0,0)"/>
<path d="" fill="#7BC341" transform="translate(0,0)"/>
<path d="" fill="#7AC83D" transform="translate(0,0)"/>
<path d="" fill="#79C540" transform="translate(0,0)"/>
<path d="" fill="#78C53E" transform="translate(0,0)"/>
<path d="" fill="#6DBF40" transform="translate(0,0)"/>
<path d="" fill="#279B3B" transform="translate(0,0)"/>
<path d="" fill="#289F3C" transform="translate(0,0)"/>
<path d="" fill="#31A037" transform="translate(0,0)"/>
<path d="" fill="#2A9E37" transform="translate(0,0)"/>
<path d="" fill="#7BC93F" transform="translate(0,0)"/>
<path d="" fill="#72BD3A" transform="translate(0,0)"/>
<path d="" fill="#7CC83F" transform="translate(0,0)"/>
<path d="" fill="#7AC83F" transform="translate(0,0)"/>
<path d="" fill="#7BC93F" transform="translate(0,0)"/>
<path d="" fill="#7CC841" transform="translate(0,0)"/>
<path d="" fill="#279C3B" transform="translate(0,0)"/>
<path d="" fill="#289D3A" transform="translate(0,0)"/>
<path d="" fill="#269D3A" transform="translate(0,0)"/>
<path d="" fill="#7ABF3C" transform="translate(0,0)"/>
<path d="" fill="#299E3A" transform="translate(0,0)"/>
<path d="" fill="#2A9B3B" transform="translate(0,0)"/>
<path d="" fill="#279C3A" transform="translate(0,0)"/>
<path d="" fill="#299C39" transform="translate(0,0)"/>
<path d="" fill="#7AC23D" transform="translate(0,0)"/>
<path d="" fill="#7BC33D" transform="translate(0,0)"/>
<path d="" fill="#289C3A" transform="translate(0,0)"/>
<path d="" fill="#7CC23D" transform="translate(0,0)"/>
<path d="" fill="#299838" transform="translate(0,0)"/>
<path d="" fill="#7DC63F" transform="translate(0,0)"/>
<path d="" fill="#7DC53F" transform="translate(0,0)"/>
<path d="" fill="#7CC63E" transform="translate(0,0)"/>
<path d="" fill="#7DC53E" transform="translate(0,0)"/>
<path d="" fill="#7CC43E" transform="translate(0,0)"/>
<path d="" fill="#73BC3E" transform="translate(0,0)"/>
<path d="" fill="#74BD3F" transform="translate(0,0)"/>
<path d="" fill="#72BC3F" transform="translate(0,0)"/>
<path d="" fill="#7BC640" transform="translate(0,0)"/>
<path d="" fill="#78C23F" transform="translate(0,0)"/>
<path d="" fill="#74BA40" transform="translate(0,0)"/>
<path d="" fill="#71B63C" transform="translate(0,0)"/>
<path d="" fill="#269D39" transform="translate(0,0)"/>
<path d="" fill="#2C9739" transform="translate(0,0)"/>
<path d="" fill="#299C3B" transform="translate(0,0)"/>
<path d="" fill="#29993B" transform="translate(0,0)"/>
<path d="" fill="#2B953B" transform="translate(0,0)"/>
<path d="" fill="#3D4E3B" transform="translate(0,0)"/>
</svg>
